<?xml version="1.0" encoding="UTF-8" standalone="no"?>
<svg
   xmlns:dc="http://purl.org/dc/elements/1.1/"
   xmlns:cc="http://creativecommons.org/ns#"
   xmlns:rdf="http://www.w3.org/1999/02/22-rdf-syntax-ns#"
   xmlns:svg="http://www.w3.org/2000/svg"
   xmlns="http://www.w3.org/2000/svg"
   xmlns:sodipodi="http://sodipodi.sourceforge.net/DTD/sodipodi-0.dtd"
   xmlns:inkscape="http://www.inkscape.org/namespaces/inkscape"
   inkscape:version="1.0 (6e3e5246a0, 2020-05-07)"
   sodipodi:docname="logo.svg"
   id="svg8"
   version="1.1"
   viewBox="0 0 210 297"
   height="297mm"
   width="210mm">
  <defs
     id="defs2">
    <rect
       id="rect217"
       height="22.906974"
       width="28.81118"
       y="121.09127"
       x="-50.527785" />
    <rect
       id="rect211"
       height="25.90751"
       width="6.8161698"
       y="179.18321"
       x="-10.334133" />
    <rect
       id="rect205"
       height="22.189278"
       width="30.445588"
       y="205.632"
       x="-17.150303" />
    <inkscape:perspective
       id="perspective10"
       inkscape:persp3d-origin="106.58804 : 157.84436 : 1"
       inkscape:vp_z="211.83109 : 168.11292 : 1"
       inkscape:vp_y="0 : 1000 : 0"
       inkscape:vp_x="-78.158857 : 122.73207 : 1"
       sodipodi:type="inkscape:persp3d" />
  </defs>
  <sodipodi:namedview
     inkscape:window-maximized="1"
     inkscape:window-y="27"
     inkscape:window-x="0"
     inkscape:window-height="660"
     inkscape:window-width="1366"
     showguides="true"
     showborder="false"
     showgrid="false"
     inkscape:document-rotation="0"
     inkscape:current-layer="layer1"
     inkscape:document-units="px"
     inkscape:cy="494.17992"
     inkscape:cx="434.86332"
     inkscape:zoom="1.046518"
     inkscape:pageshadow="2"
     inkscape:pageopacity="0.0"
     borderopacity="1.0"
     bordercolor="#666666"
     pagecolor="#ff0000"
     id="base" />
  <metadata
     id="metadata5">
    <rdf:RDF>
      <cc:Work
         rdf:about="">
        <dc:format>image/svg+xml</dc:format>
        <dc:type
           rdf:resource="http://purl.org/dc/dcmitype/StillImage" />
        <dc:title></dc:title>
      </cc:Work>
    </rdf:RDF>
  </metadata>
  <g
     id="layer1"
     inkscape:groupmode="layer"
     inkscape:label="Layer 1">
    <text
       id="text112"
       y="205.88748"
       x="5.3638449"
       style="font-size:211.667px;line-height:0.85;font-family:sans-serif;fill:#0000ff;stroke-width:0.264583"
       xml:space="preserve"><tspan
         sodipodi:role="line"
         style="font-size:211.667px;fill:#0000ff;stroke-width:0.264583"
         y="205.88748"
         x="5.3638449"
         id="tspan110">B</tspan></text>
    <text
       style="font-size:10.5833px;line-height:0.85;font-family:sans-serif;white-space:pre;shape-inside:url(#rect205);"
       id="text203"
       xml:space="preserve" />
    <text
       style="line-height:0.85;font-family:sans-serif;font-size:10.58333336px;white-space:pre;shape-inside:url(#rect211);"
       id="text209"
       xml:space="preserve" />
    <text
       style="line-height:0.85;font-family:sans-serif;font-size:10.58333336px;white-space:pre;shape-inside:url(#rect217);"
       id="text215"
       xml:space="preserve" />
    <g
       inkscape:corner7="0.58657952 : -0.083511531 : -564.57415 : 1"
       inkscape:corner0="0.85783075 : 0.16050882 : 0.01898189 : 1"
       inkscape:perspectiveID="#perspective10"
       style="fill:#f3f1f1;fill-opacity:0.900427"
       id="g246"
       sodipodi:type="inkscape:box3d">
      <path
         points="40.336427,51.891725 40.336427,203.87616 23.210588,199.59695 23.210588,69.578465 "
         d="M 23.210588,69.578465 40.336427,51.891725 V 203.87616 l -17.125839,-4.27921 z"
         inkscape:box3dsidetype="3"
         style="fill:#f3f1f1;fill-opacity:0.900427"
         id="path252"
         sodipodi:type="inkscape:box3dside" />
      <path
         points="23.210588,199.59695 212.4602,128.65125 212.4602,129.0849 23.210588,69.578465 "
         d="M 23.210588,69.578465 V 199.59695 L 212.4602,128.65125 v 0.43365 z"
         inkscape:box3dsidetype="6"
         style="fill:#f3f1f1;fill-opacity:0.900427;fill-rule:evenodd;stroke:none;stroke-linejoin:round"
         id="path248"
         sodipodi:type="inkscape:box3dside" />
      <path
         points="40.336427,203.87616 212.32017,128.67323 212.4602,128.65125 23.210588,199.59695 "
         d="m 23.210588,199.59695 17.125839,4.27921 171.983743,-75.20293 0.14003,-0.022 z"
         inkscape:box3dsidetype="13"
         style="fill:#f3f1f1;fill-opacity:0.900427;fill-rule:evenodd;stroke:none;stroke-linejoin:round"
         id="path256"
         sodipodi:type="inkscape:box3dside" />
      <path
         points="40.336427,51.891725 212.32017,129.10667 212.4602,129.0849 23.210588,69.578465 "
         d="m 23.210588,69.578465 17.125839,-17.68674 171.983743,77.214945 0.14003,-0.0218 z"
         inkscape:box3dsidetype="5"
         style="fill:#f3f1f1;fill-opacity:0.900427;fill-rule:evenodd;stroke:none;stroke-linejoin:round"
         id="path250"
         sodipodi:type="inkscape:box3dside" />
      <path
         points="40.336427,203.87616 212.32017,128.67323 212.32017,129.10667 40.336427,51.891725 "
         d="M 40.336427,51.891725 V 203.87616 L 212.32017,128.67323 v 0.43344 z"
         inkscape:box3dsidetype="14"
         style="fill:#f3f1f1;fill-opacity:0.900427;fill-rule:evenodd;stroke:none;stroke-linejoin:round"
         id="path254"
         sodipodi:type="inkscape:box3dside" />
      <path
         points="212.32017,129.10667 212.32017,128.67323 212.4602,128.65125 212.4602,129.0849 "
         d="m 212.4602,129.0849 -0.14003,0.0218 v -0.43344 l 0.14003,-0.022 z"
         inkscape:box3dsidetype="11"
         style="fill:#f3f1f1;fill-opacity:0.900427;fill-rule:evenodd;stroke:none;stroke-linejoin:round"
         id="path258"
         sodipodi:type="inkscape:box3dside" />
    </g>
    <path
       transform="matrix(0,1.217926,-1.2441103,0,-190.49774,247.55011)"
       inkscape:transform-center-y="0.21388644"
       inkscape:transform-center-x="0.38799901"
       d="m -62.577441,-215.4038 c 1.718745,-8.49108 -14.75475,5.1265 -8.373327,-0.73268 6.381422,-5.85917 -8.589813,9.39457 0.0168,8.40531 8.606613,-0.98926 -9.435059,-12.44843 -1.890689,-8.18992 7.54437,4.25851 -11.589162,-5.26631 -7.988728,2.61336 3.600434,7.87968 8.923562,-12.82005 7.204817,-4.32897 -1.718745,8.49107 1.427317,-12.64933 -4.954105,-6.79016 -6.381423,5.85917 14.950124,4.5252 6.343511,5.51446 -8.606613,0.98926 12.471293,-2.5514 4.926923,-6.80991 -7.54437,-4.25851 0.316122,15.61678 -3.284312,7.7371 -3.600434,-7.87968 6.280366,11.07248 7.999111,2.58141 z"
       inkscape:randomized="0"
       inkscape:rounded="-1.03069"
       inkscape:flatsided="false"
       sodipodi:arg2="0.82803789"
       sodipodi:arg1="0.19971936"
       sodipodi:r2="1.6045213"
       sodipodi:r1="9.6503277"
       sodipodi:cy="-217.31837"
       sodipodi:cx="-72.035942"
       sodipodi:sides="5"
       id="path350"
       style="fill:#ff0000;fill-opacity:0.884464;stroke-width:0.264583"
       sodipodi:type="star" />
    <path
       transform="matrix(0.99999803,0,0,1,9.0535363,-60.707486)"
       inkscape:transform-center-y="-0.40713883"
       inkscape:transform-center-x="-0.19489225"
       d="m 76.220081,163.40591 c 9.23146,-5.34852 -16.773642,-9.41684 -6.161456,-8.31777 10.612186,1.09908 -15.674712,-0.24834 -7.735294,6.87852 7.939418,7.12686 3.772607,-18.86265 6.00667,-8.43023 2.234063,10.43243 -4.607565,-14.98427 -8.932195,-5.23112 -4.324629,9.75316 19.105242,-2.24091 9.873783,3.1076 -9.23146,5.34852 12.82708,-9.01245 2.214894,-10.11153 -10.612186,-1.09907 8.035081,17.47769 0.09566,10.35083 -7.939419,-7.12686 12.535136,9.41428 10.301074,-1.01814 -2.234062,-10.43243 -14.139288,13.04271 -9.814659,3.28956 4.324629,-9.75316 -5.07994,14.83079 4.15152,9.48228 z"
       inkscape:randomized="0"
       inkscape:rounded="-1.03069"
       inkscape:flatsided="false"
       sodipodi:arg2="1.6739958"
       sodipodi:arg1="1.0456772"
       sodipodi:r2="1.9759902"
       sodipodi:r1="11.884511"
       sodipodi:cy="153.12267"
       sodipodi:cx="70.262184"
       sodipodi:sides="5"
       id="path352"
       style="fill:#ff0000;fill-opacity:0.941454;stroke-width:0.264583"
       sodipodi:type="star" />
  </g>
</svg>
